<?xml version="1.0" encoding="UTF-8"?>
<svg version="1.1" xmlns="http://www.w3.org/2000/svg" width="2000" height="2000">
<path d="M0 0 C660 0 1320 0 2000 0 C2000 660 2000 1320 2000 2000 C1340 2000 680 2000 0 2000 C0 1340 0 680 0 0 Z " fill="#FEFEFE" transform="translate(0,0)"/>
<path d="M0 0 C1.04293213 0.0005797 1.04293213 0.0005797 2.10693359 0.00117111 C39.12818761 0.02704141 74.7375216 3.6850181 111.03106689 10.97979736 C112.80607876 11.33607629 114.58240798 11.68577674 116.35888672 12.03466797 C131.39846471 15.02465856 145.93695666 19.54262348 160.51660156 24.25488281 C163.67942193 25.27191532 166.84929778 26.26120546 170.0234375 27.2421875 C231.40590305 46.54245666 290.31674891 79.88421181 339.0078125 121.8203125 C341.87918941 124.27185362 344.80278357 126.64059405 347.75 129 C352.08320897 132.5219115 356.01595511 136.28438978 359.91015625 140.28125 C361.75252173 142.12705916 363.63269645 143.82046669 365.625 145.5 C374.44375243 153.07667462 382.85269579 161.55815837 390.34765625 170.4453125 C392.41558631 172.86034193 394.58607434 175.17065725 396.75 177.5 C401.44264546 182.64631512 405.75224588 188.01876636 410.00292969 193.5324707 C411.90015842 195.9801941 413.82354211 198.40076936 415.78759766 200.79516602 C423.08754231 209.70859443 429.67421567 218.93864519 436 228.5625 C436.47556335 229.28177673 436.95112671 230.00105347 437.44110107 230.74212646 C449.78103056 249.40768316 460.89044568 268.40504275 471 288.375 C471.63298134 289.6087626 472.26604248 290.84248425 472.89916992 292.07617188 C477.62913841 301.3470334 481.88092021 310.74000322 485.8125 320.375 C486.10892395 321.09844604 486.4053479 321.82189209 486.71075439 322.56726074 C502.43011555 361.0519075 514.58393473 401.11835503 519.69042969 442.47167969 C519.98297892 444.59031435 519.98297892 444.59031435 521 447.375 C521.36074496 449.96250692 521.68365818 452.54110792 521.97265625 455.13671875 C522.06020676 455.91202438 522.14775726 456.68733002 522.23796082 457.48612976 C522.51897205 460.01095525 522.7920027 462.53652735 523.0625 465.0625 C523.15470825 465.91604065 523.2469165 466.7695813 523.34191895 467.64898682 C524.82948678 481.61588809 525.50492018 495.32138838 525 509.375 C524.67 509.375 524.34 509.375 524 509.375 C523.90295776 507.95296265 523.90295776 507.95296265 523.80395508 506.50219727 C520.80887804 463.38613675 514.06534806 421.67121496 501 380.375 C500.69626465 379.40095215 500.3925293 378.4269043 500.07958984 377.42333984 C495.24872848 362.02512561 489.49114169 347.14619966 483 332.375 C482.56816406 331.39031738 482.13632813 330.40563477 481.69140625 329.39111328 C462.68587841 286.35374405 438.47344869 245.34985005 408 209.375 C407.10765282 208.30894525 406.21574952 207.24251885 405.32421875 206.17578125 C399.68642701 199.44870338 393.9427917 192.83574143 388 186.375 C387.46922852 185.79379395 386.93845703 185.21258789 386.39160156 184.61376953 C373.16279317 170.15463055 359.04672197 156.92071278 344 144.375 C343.07864258 143.60422119 343.07864258 143.60422119 342.13867188 142.81787109 C293.18622942 102.01161714 237.8376802 72.77467572 178 51.375 C176.72817871 50.91867188 176.72817871 50.91867188 175.43066406 50.453125 C98.17165791 22.98325615 10.4886113 18.42752735 -196.6796875 73.83984375 C-198.45343982 74.68423483 -200.22690523 75.52922904 -202 76.375 C-202.71446289 76.71031738 -203.42892578 77.04563477 -204.16503906 77.39111328 C-222.61765685 86.06796457 -240.52304005 96.49862624 -257.24609375 108.15820312 C-259.15324394 109.48131512 -261.07520843 110.78082284 -263 112.078125 C-271.00296398 117.49055609 -278.77975135 123.11350476 -286.3671875 129.09375 C-288.08031191 130.43801987 -289.8046916 131.76678808 -291.53125 133.09375 C-298.12781083 138.18539201 -304.43680604 143.4331094 -310.546875 149.10546875 C-312.70242371 151.09969454 -314.89486135 153.02783403 -317.125 154.9375 C-320.85968254 158.17676547 -324.30600418 161.66254033 -327.7734375 165.18359375 C-329.82399377 167.20177281 -331.93102831 169.07813017 -334.125 170.9375 C-337.52243267 173.85054623 -340.40383627 177.00709677 -343.29296875 180.41796875 C-344.91260807 182.27480925 -346.60123291 183.97897492 -348.375 185.6875 C-352.07046564 189.31682755 -355.27283412 193.28698518 -358.49609375 197.3359375 C-360.55389224 199.83354627 -362.66347298 202.23308812 -364.83203125 204.6328125 C-368.90674659 209.19402559 -372.61215011 213.96171117 -376.25 218.875 C-376.89694824 219.74519775 -377.54389648 220.61539551 -378.21044922 221.51196289 C-380.14793799 224.12745358 -382.07609136 226.74950804 -384 229.375 C-384.54237305 230.11347168 -385.08474609 230.85194336 -385.64355469 231.61279297 C-394.06832821 243.14128947 -401.67818437 255.12038028 -409 267.375 C-409.5053125 268.22046387 -410.010625 269.06592773 -410.53125 269.93701172 C-433.54373024 308.71813484 -450.73930086 350.15787409 -462.29492188 393.72314453 C-462.88529002 395.94356654 -463.49270473 398.15789416 -464.109375 400.37109375 C-471.10838421 426.56000935 -474.47613195 453.44632104 -477 480.375 C-477.1045752 481.39907959 -477.20915039 482.42315918 -477.31689453 483.47827148 C-482.08882282 535.3505832 -476.55179034 590.14559087 -463 640.375 C-462.7844043 641.20467285 -462.56880859 642.0343457 -462.34667969 642.88916016 C-455.97362818 667.37792872 -447.6431443 691.92125662 -437.11083984 714.93261719 C-435.92943553 717.53014879 -434.78530433 720.14219945 -433.64453125 722.7578125 C-427.803138 736.03945639 -421.18618193 748.77432931 -414 761.375 C-413.45907715 762.32503906 -412.9181543 763.27507813 -412.36083984 764.25390625 C-406.13204463 775.13370606 -399.70552862 785.70237552 -392.20166016 795.74951172 C-390.51763746 798.02749285 -388.88933958 800.34340466 -387.25683594 802.65844727 C-376.80623884 817.45127964 -365.5026937 831.44461192 -353.30493164 844.83496094 C-351.8516088 846.43652548 -350.40520905 848.04442578 -348.96875 849.66113281 C-343.37666303 855.9496224 -337.57261436 861.9855124 -331.625 867.9375 C-330.75617188 868.81857422 -329.88734375 869.69964844 -328.9921875 870.60742188 C-322.97591626 876.63704283 -316.6475386 882.05815665 -310 887.375 C-308.87565419 888.32252125 -307.75604478 889.27573895 -306.64453125 890.23828125 C-299.05471689 896.80216208 -291.18977115 902.8960836 -283.09912109 908.82910156 C-281.02066679 910.35977993 -278.95712293 911.90897557 -276.89453125 913.4609375 C-257.75264038 927.73030673 -237.09654808 939.87674333 -215.91601562 950.85351562 C-213.97683715 951.86531739 -212.04568171 952.89265127 -210.12304688 953.93554688 C-195.24202263 962.00161128 -181.76984334 965.55978834 -165 967.375 C-162.96052114 967.62158033 -160.92145009 967.87155835 -158.8828125 968.125 C-154.71952825 968.63837289 -150.55424424 969.12784366 -146.38671875 969.60546875 C-141.20067288 970.21230459 -136.04082612 970.93923133 -130.87597656 971.70336914 C-95.7576361 976.83449714 -60.30520616 980.23292621 -24.875 982.1875 C-23.32872925 982.27331833 -23.32872925 982.27331833 -21.7512207 982.36087036 C6.8129126 983.90986349 35.35429611 984.54750923 63.95507812 984.50537109 C67.85119054 984.49966445 71.74723475 984.50307977 75.64334488 984.50880814 C106.84768901 984.54773455 137.97049824 983.99875036 169 980.4375 C170.52600375 980.26593841 172.05204542 980.09471385 173.578125 979.92382812 C177.33253343 979.5015279 181.08552279 979.06805259 184.83786011 978.62774658 C186.25131085 978.46251914 187.66498052 978.29915116 189.07888794 978.13787842 C198.59303753 977.0503918 207.98474908 975.58148345 217.38452148 973.77050781 C219.46049157 973.37057066 221.53770316 972.97767692 223.61523438 972.5859375 C230.43681513 971.29301175 237.2337879 969.93355163 244 968.375 C242.97616211 968.49472168 241.95232422 968.61444336 240.89746094 968.73779297 C206.65851952 972.67796875 172.46838354 975.31676324 138 974.375 C136.97374512 974.34859436 135.94749023 974.32218872 134.89013672 974.29498291 C107.12121281 973.57634351 79.42865841 972.53635812 51.78417969 969.74853516 C48.14193548 969.3890104 44.4985679 969.0687345 40.8515625 968.76171875 C4.7510735 965.63952757 -31.30057397 960.54356312 -67 954.375 C-68.34673976 954.14701629 -69.693586 953.91966081 -71.04052734 953.69287109 C-91.34117294 950.27163489 -111.48876141 946.32356925 -131.59466553 941.90228271 C-134.17255955 941.33717255 -136.75144968 940.7767877 -139.33056641 940.21728516 C-170.11147638 933.53590389 -200.73648398 926.61923832 -230.77685547 917.05566406 C-232.82201964 916.42949256 -234.87269804 915.89303446 -236.9453125 915.3671875 C-241.34027786 913.93966678 -242.37931728 912.07478737 -245 908.375 C-246.43304064 905.50891871 -246.30644155 903.56199217 -246 900.375 C-243.08910922 894.96382267 -239.58901923 892.36041136 -234.5 889.25 C-233.75298828 888.78118408 -233.00597656 888.31236816 -232.23632812 887.8293457 C-229.83323684 886.32940132 -227.41813606 884.85054662 -225 883.375 C-224.22527344 882.89756348 -223.45054687 882.42012695 -222.65234375 881.92822266 C-176.11058718 853.28639459 -126.32917205 828.56626147 -74 812.375 C-72.84242188 812.00503906 -71.68484375 811.63507812 -70.4921875 811.25390625 C-37.32095926 800.9050668 -3.45347344 795.15802371 31 791.375 C33.06127998 791.14396014 35.12248912 790.91228647 37.18359375 790.6796875 C41.12138292 790.23533474 45.06045813 789.80353854 49 789.375 C48.39865234 788.3226416 48.39865234 788.3226416 47.78515625 787.24902344 C46.56501402 785.11377454 45.34488153 782.97852008 44.12475586 780.84326172 C42.6881618 778.32921165 41.25146318 775.81522138 39.81469727 773.30126953 C36.1755668 766.93357439 32.53741892 760.56532362 28.90234375 754.1953125 C21.84689304 741.83363208 14.76561156 729.48746605 7.64428711 717.16357422 C3.07273027 709.2473703 -1.46943313 701.31469544 -6 693.375 C-12.3715956 682.21005491 -18.77726525 671.06517248 -25.20703125 659.93359375 C-25.78106689 658.91160889 -26.35510254 657.88962402 -26.9465332 656.83666992 C-28.46389827 654.19589766 -30.13599804 651.70638516 -31.87182617 649.2043457 C-40.4972472 636.33268622 -41.40330779 625.91591162 -40.6875 610.6875 C-40.63214507 608.60625219 -40.58198688 606.52485946 -40.53710938 604.44335938 C-40.41768403 599.41689342 -40.22895586 594.39761913 -40 589.375 C-39.3796286 589.36913376 -38.7592572 589.36326752 -38.12008667 589.35722351 C-31.59718919 589.29272853 -25.07475982 589.20817277 -18.55224609 589.11254883 C-16.12587704 589.07952495 -13.69943532 589.0514248 -11.27294922 589.02856445 C7.58168295 588.97829297 7.58168295 588.97829297 26 585.375 C26.72123047 585.17140869 27.44246094 584.96781738 28.18554688 584.75805664 C45.74303935 579.47557764 60.75532077 569.49139266 70 553.375 C72.84044433 547.81562768 75.02339631 542.30481106 77 536.375 C38.39 536.375 -0.22 536.375 -40 536.375 C-40 521.525 -40 506.675 -40 491.375 C-1.72 491.375 36.56 491.375 76 491.375 C69.12122856 470.73868568 59.72832949 454.6249206 39.8125 444.5625 C23.90622932 438.13438383 6.88166009 438.84044541 -9.98522949 438.70544434 C-13.37830235 438.6752243 -16.77115892 438.6289926 -20.1640625 438.58398438 C-26.77605226 438.49740838 -33.3875481 438.43677871 -40 438.375 C-40 423.525 -40 408.675 -40 393.375 C49.43 393.375 138.86 393.375 231 393.375 C231 408.225 231 423.075 231 438.375 C200.31 438.705 169.62 439.035 138 439.375 C140.97 443.005 143.94 446.635 147 450.375 C148.70753706 453.00620477 150.27440239 455.50884159 151.75 458.25 C152.30602905 459.26562012 152.30602905 459.26562012 152.87329102 460.30175781 C158.40717129 470.63037516 161.04729056 479.65874338 163 491.375 C185.44 491.375 207.88 491.375 231 491.375 C231 506.225 231 521.075 231 536.375 C208.89 536.375 186.78 536.375 164 536.375 C163.67 540.005 163.34 543.635 163 547.375 C162.23599015 550.68218452 161.43556091 553.83361346 160.4375 557.0625 C160.17501465 557.91900146 159.9125293 558.77550293 159.64208984 559.65795898 C155.53510642 572.50211465 149.47692551 583.86499072 141 594.375 C140.44828125 595.07882812 139.8965625 595.78265625 139.328125 596.5078125 C126.81543468 611.7017936 108.72113048 621.64944206 91.00878906 629.48535156 C89.4220986 630.18806183 87.84573876 630.91409622 86.2734375 631.6484375 C82.2799454 633.41234744 78.18224697 634.64275586 73.95703125 635.71875 C73.04236084 635.95174805 72.12769043 636.18474609 71.18530273 636.42480469 C67.12988567 637.43522395 63.06781348 638.41577761 59 639.375 C62.07687041 645.9019256 65.76052878 651.80754709 69.75 657.8125 C71.09473886 659.85481799 72.43845295 661.89781102 73.78125 663.94140625 C74.47476563 664.99602051 75.16828125 666.05063477 75.8828125 667.13720703 C79.37825318 672.48274835 82.81436999 677.86589577 86.25 683.25 C90.64813975 690.13716805 95.05167582 697.0201223 99.5 703.875 C104.73611461 711.94517664 109.91607641 720.05098545 115.09765625 728.15625 C119.30404157 734.73321679 123.5284728 741.29779353 127.77954102 747.84594727 C131.16221058 753.06311516 134.51194875 758.30075115 137.84838867 763.54760742 C139.23896282 765.72081627 140.64147508 767.88643318 142.0559082 770.04418945 C145.19949529 774.85473548 148.18563658 779.57982036 150.671875 784.765625 C153.74317938 790.84444884 156.47985901 795.90999005 163.00585938 798.62597656 C170.3617804 800.77440562 177.85661626 801.86086249 185.44042969 802.86572266 C190.39431103 803.57448785 195.20921878 804.67003462 200.0625 805.875 C200.89458984 806.07512695 201.72667969 806.27525391 202.58398438 806.48144531 C210.1366489 808.32956393 217.57121673 810.5451209 224.99609375 812.84765625 C228.64089199 813.97752895 232.30322818 815.01614826 235.98046875 816.03515625 C247.37983313 819.27844198 258.61534245 823.05695164 269.875 826.75 C271.08210632 827.14495667 272.28921265 827.53991333 273.53289795 827.94683838 C291.23783952 833.74398505 308.87583956 839.70609783 326.42529297 845.95849609 C333.93125527 848.62976706 341.43620638 851.19415615 349.06835938 853.48974609 C351.82680915 854.32270236 354.56879144 855.19380097 357.30859375 856.0859375 C370.10687765 860.24648859 382.95867532 864.05018357 396 867.375 C397.00514648 867.63168457 398.01029297 867.88836914 399.04589844 868.15283203 C438.9505608 878.19428259 482.26127945 883.5644651 521.92578125 869.328125 C524.86594947 868.41656077 526.95431167 868.04429479 530 868.375 C532.375 870 532.375 870 534 872.375 C533.65981649 876.97190063 532.26332701 880.161881 529.9296875 884.09375 C528.96748291 885.72280273 528.96748291 885.72280273 527.98583984 887.38476562 C527.28308776 888.54869748 526.57945265 889.71209659 525.875 890.875 C525.51819153 891.47014404 525.16138306 892.06528809 524.79376221 892.6784668 C505.3279007 925.13421628 482.43427166 955.73719453 456.66796875 983.4609375 C454.6868809 985.62476112 452.76726351 987.80895592 450.859375 990.03515625 C446.62174056 994.89524534 442.07924353 999.44621711 437.51196289 1003.9934082 C436.06475615 1005.43525221 434.62297974 1006.88237116 433.18164062 1008.33007812 C428.49373689 1013.02129564 423.74734302 1017.58996303 418.7097168 1021.90600586 C416.3714486 1023.91505337 414.12945291 1026.02277703 411.875 1028.125 C406.12728989 1033.36022567 400.08864657 1038.13234415 393.93066406 1042.87255859 C391.95410245 1044.41071744 390.00298366 1045.977011 388.0546875 1047.55078125 C374.96472959 1058.04945864 361.08280627 1067.28165764 347 1076.375 C346.15937012 1076.91785645 345.31874023 1077.46071289 344.45263672 1078.02001953 C315.42418106 1096.60397813 284.24771498 1111.36028183 252 1123.375 C250.86916992 1123.80167969 249.73833984 1124.22835938 248.57324219 1124.66796875 C209.43815564 1139.30843278 168.51925446 1147.37097413 127 1151.375 C126.09934814 1151.47071289 125.19869629 1151.56642578 124.27075195 1151.66503906 C112.32265014 1152.78320104 100.30146938 1152.61895506 88.3125 1152.625 C86.51113083 1152.62601212 86.51113083 1152.62601212 84.67337036 1152.62704468 C25.28625765 1152.57416564 -33.09585742 1141.89607564 -87.140625 1116.70556641 C-89.87641944 1115.43250632 -92.62373337 1114.18840466 -95.375 1112.94921875 C-130.01068471 1097.14241604 -161.50840166 1075.10969591 -189.609375 1049.546875 C-191.21457172 1048.08855902 -192.8293543 1046.6407309 -194.453125 1045.203125 C-195.27296875 1044.47609375 -196.0928125 1043.7490625 -196.9375 1043 C-197.77796875 1042.25621094 -198.6184375 1041.51242187 -199.484375 1040.74609375 C-202 1038.375 -202 1038.375 -204.265625 1035.78515625 C-212.36425585 1026.6807277 -222.26594845 1022.16142261 -233.06054688 1016.84375 C-260.17055117 1003.2977545 -286.04195845 986.91313878 -310 968.375 C-311.03898438 967.58996094 -312.07796875 966.80492187 -313.1484375 965.99609375 C-319.90244655 960.88299159 -326.42597332 955.55284551 -332.859375 950.04296875 C-335.81916681 947.51291244 -338.84128796 945.06606065 -341.875 942.625 C-345.54788025 939.63779493 -348.95448626 936.55422973 -352.23217773 933.1418457 C-353.92969285 931.44526832 -355.68494532 929.89836398 -357.515625 928.34765625 C-362.42926842 924.07619755 -367.02720153 919.49845357 -371.6184082 914.88696289 C-373.06025221 913.43975615 -374.50737116 911.99797974 -375.95507812 910.55664062 C-381.18362034 905.33179144 -386.19190328 899.98812022 -391 894.375 C-392.4132355 892.8301874 -393.82940409 891.28804675 -395.25 889.75 C-400.2918172 884.15553841 -404.89119697 878.26602233 -409.49023438 872.30859375 C-411.00829137 870.36438104 -412.55465633 868.44623185 -414.109375 866.53125 C-421.7062991 857.0934369 -428.59847753 847.26252354 -435.3125 837.1875 C-435.72861542 836.56464111 -436.14473083 835.94178223 -436.57345581 835.30004883 C-445.97863092 821.18891596 -454.59546129 806.65781414 -462.69970703 791.76269531 C-463.56358861 790.17637127 -464.43172945 788.59235903 -465.30419922 787.01074219 C-477.58704578 764.68574633 -487.40416342 741.11917058 -495.99560547 717.15185547 C-496.95165954 714.50864716 -497.94224644 711.88106416 -498.94140625 709.25390625 C-513.97624027 668.93425152 -522.42392141 625.62853841 -525.72363281 582.80175781 C-525.98025038 579.6198813 -526.28730442 576.44843208 -526.6171875 573.2734375 C-535.65054712 482.76770607 -515.66671939 388.26532225 -468.98779297 289.27685547 C-467.9055502 287.19315028 -466.84557715 285.09879528 -465.78515625 283.00390625 C-449.32799395 250.78858689 -428.4574228 220.90709751 -405.40625 193.08544922 C-404.1705591 191.58245435 -402.95832092 190.06024186 -401.75 188.53515625 C-391.29080251 175.36211396 -379.23990943 163.51936694 -367.40060425 151.60037231 C-366.27515173 150.46686008 -365.15118199 149.3318733 -364.02883911 148.19528198 C-357.75529923 141.85048528 -351.42293615 135.85400845 -344.41186523 130.31933594 C-341.96615507 128.34771576 -339.66814311 126.27107013 -337.375 124.125 C-330.99942285 118.32443535 -324.10330106 113.21434958 -317.21679688 108.04345703 C-315.04888573 106.41179351 -312.89058812 104.76817329 -310.734375 103.12109375 C-303.35267573 97.50062981 -295.90667578 92.23987185 -288 87.375 C-286.61177469 86.48803065 -285.22519753 85.59847898 -283.83984375 84.70703125 C-272.11973058 77.18427896 -260.19161314 70.10663495 -248 63.375 C-247.16275391 62.9123877 -246.32550781 62.44977539 -245.46289062 61.97314453 C-212.99901494 44.1811722 -178.3508813 31.1492611 -143 20.375 C-141.78739502 20.00084961 -141.78739502 20.00084961 -140.55029297 19.61914062 C-118.31209115 12.82261199 -95.0718923 8.11205546 -72 5.375 C-69.92051552 5.11895531 -67.8410914 4.86242003 -65.76171875 4.60546875 C-60.60700388 3.97460809 -55.45149072 3.35354174 -50.29101562 2.77148438 C-48.02507683 2.4984959 -45.76318149 2.19041054 -43.50585938 1.85351562 C-29.06046284 -0.16666765 -14.55993837 -0.02358319 0 0 Z " fill="#09B5B8" transform="translate(798,186.625)"/>
<path d="M0 0 C1.08039551 0.34015137 2.16079102 0.68030273 3.27392578 1.03076172 C35.91797781 11.38024565 67.72210864 24.15325642 96.07910156 43.68212891 C98.04693523 45.03220086 100.03274321 46.35188263 102.0234375 47.66796875 C111.07469098 53.70250168 119.5646722 60.28373673 127.90185547 67.2668457 C129.4069101 68.51008318 130.92889843 69.73292869 132.46142578 70.94213867 C139.63309204 76.64524652 146.12067019 82.84315377 152.55371094 89.34790039 C154.25659392 91.0691651 155.96746929 92.7821666 157.6796875 94.49414062 C163.32591138 100.15806315 168.87551312 105.85215462 174 112 C174.48162598 112.57484131 174.96325195 113.14968262 175.45947266 113.74194336 C210.52305676 156.0689555 236.80024763 206.69252789 248.43701172 260.53076172 C249.06364636 263.27914973 249.78275082 265.99656839 250.5 268.72265625 C252.18849061 275.42168674 253.19165726 282.16046439 254.125 289 C254.29386719 290.18078125 254.46273437 291.3615625 254.63671875 292.578125 C256.6879204 307.24340927 257.24099881 321.64885433 257.25 336.4375 C257.25101212 337.93456985 257.25101212 337.93456985 257.25204468 339.46188354 C257.21754202 371.70510091 253.7757661 404.1483058 244 435 C243.67435059 436.05815918 243.34870117 437.11631836 243.01318359 438.20654297 C225.40674385 495.1076048 194.70914915 544.44740662 152.625 586.5625 C151.75617187 587.44357422 150.88734375 588.32464844 149.9921875 589.23242188 C143.97913324 595.25881871 137.68519846 600.73289397 131 606 C130.38640625 606.48782959 129.7728125 606.97565918 129.140625 607.47827148 C126.03814022 609.92747432 122.88502479 612.3093549 119.7265625 614.68554688 C117.91424665 616.06528508 116.12989633 617.47722319 114.34375 618.890625 C113.12588369 619.82407075 111.90715563 620.75639342 110.6875 621.6875 C110.13731201 622.13407959 109.58712402 622.58065918 109.02026367 623.04077148 C105.90716986 625.36756601 103.7239994 626.28766933 99.92578125 625.8671875 C96.72956789 625.24622427 93.60205977 624.42843576 90.5 623.4375 C89.21609375 623.03337891 89.21609375 623.03337891 87.90625 622.62109375 C87.2771875 622.41613281 86.648125 622.21117187 86 622 C87.40661321 617.78016037 90.48592538 616.44503026 94.0625 614.125 C110.06178357 603.4299444 124.56716478 590.7622508 138 577 C143 572 143 572 144.9921875 570.078125 C150.80910247 564.40210416 155.98891523 558.39035119 161 552 C161.49016602 551.38092773 161.98033203 550.76185547 162.48535156 550.12402344 C191.79783401 513.00932755 212.38941411 469.84385974 224 424 C224.25007813 423.01257813 224.50015625 422.02515625 224.7578125 421.0078125 C226.62431172 412.97204217 227.87648518 404.83834114 229.125 396.6875 C229.38120117 395.05228394 229.38120117 395.05228394 229.64257812 393.3840332 C238.73444539 332.00034572 228.81721449 265.49528939 201 210 C200.27707764 208.53989502 200.27707764 208.53989502 199.53955078 207.05029297 C179.25520018 166.2982804 150.43846577 126.91850746 114 99 C112.69094581 97.97454584 111.38239053 96.94845462 110.07421875 95.921875 C97.24431127 85.91595769 84.07527624 76.95633742 69.84960938 69.06201172 C67.64356746 67.79534298 65.48917936 66.45282157 63.32421875 65.1171875 C30.92801746 45.6484772 -10.37337999 33.84381628 -47.62109375 29.29248047 C-49.16681604 29.10243785 -50.71125613 28.90153972 -52.25390625 28.68798828 C-80.05358396 24.86251089 -109.32793086 25.76402581 -137 30 C-138.74584644 30.24396387 -140.49193367 30.4862121 -142.23828125 30.7265625 C-152.34205744 32.1645717 -162.17142774 34.26320155 -172 37 C-172.69867187 37.19352051 -173.39734375 37.38704102 -174.1171875 37.58642578 C-178.43543419 38.79362516 -182.72777244 40.06857619 -187.00976562 41.3984375 C-188.83390134 41.9497955 -190.6743283 42.44648755 -192.515625 42.9375 C-203.1028798 46.08905492 -210.91832192 52.39958903 -219.53564453 59.10498047 C-222.72510114 61.55758223 -225.97981598 63.91303829 -229.23950195 66.27099609 C-238.51720956 72.99545882 -247.40216795 80.11501092 -256.17822266 87.47802734 C-258.66098221 89.55220626 -261.17386948 91.58840885 -263.6875 93.625 C-269.5964821 98.45557058 -275.38218645 103.42561975 -281.15869141 108.41308594 C-283.00160629 110.00138437 -284.84995974 111.5831579 -286.69921875 113.1640625 C-293.86283308 119.30698129 -300.8716972 125.58091285 -307.72631836 132.06787109 C-310.66736319 134.84742898 -313.6384059 137.56560503 -316.70898438 140.2019043 C-321.04429945 143.9866849 -325.12909213 147.98457142 -329.19140625 152.05859375 C-329.94034653 152.8065773 -330.6892868 153.55456085 -331.46092224 154.32521057 C-333.03271225 155.89632464 -334.60325849 157.46868392 -336.17260742 159.04223633 C-338.55601304 161.43099846 -340.94471068 163.81437446 -343.33398438 166.19726562 C-344.87011237 167.7340545 -346.40593009 169.2711536 -347.94140625 170.80859375 C-348.99794151 171.86209267 -348.99794151 171.86209267 -350.07582092 172.93687439 C-354.05159433 176.93123131 -357.85423737 181.02424887 -361.5308075 185.29612732 C-363.38891712 187.45104046 -365.31952405 189.53491778 -367.25 191.625 C-372.83346789 197.82885321 -377.93247669 204.37584697 -383 211 C-383.59683594 211.77762695 -384.19367188 212.55525391 -384.80859375 213.35644531 C-392.67489772 223.63170433 -400.24996964 233.95116983 -407 245 C-405.36151654 243.36151654 -404.02929352 241.47570432 -402.61230469 239.64697266 C-387.82094705 220.60271952 -371.69484734 201.78268796 -353.3515625 186.0703125 C-350.85551377 183.87279452 -348.43160111 181.61022251 -346.00756836 179.33398438 C-340.35646883 174.02778763 -334.62173484 168.94935103 -328.56640625 164.1015625 C-326.02440637 162.01998573 -323.60470665 159.8496162 -321.1875 157.625 C-315.62793016 152.56605493 -309.73373489 147.98998797 -303.79248047 143.39404297 C-302.07251723 142.0563979 -300.36427159 140.70541078 -298.66015625 139.34765625 C-289.7459503 132.25395715 -280.61682082 125.47175144 -271.41259766 118.75976562 C-269.83536451 117.60932073 -268.25945983 116.45705175 -266.68505859 115.30273438 C-255.65724053 107.21772626 -244.43880586 99.49092061 -233 92 C-232.20867676 91.47937988 -231.41735352 90.95875977 -230.60205078 90.42236328 C-213.4128502 79.1175681 -196.00053456 68.23296815 -178.1875 57.9375 C-177.09614746 57.30602051 -176.00479492 56.67454102 -174.88037109 56.02392578 C-157.444634 46.01006655 -157.444634 46.01006655 -152 47 C-149.625 48.375 -149.625 48.375 -148 51 C-147.14199098 58.26453401 -148.61744865 65.17500723 -150.375 72.1875 C-150.63829102 73.25556885 -150.90158203 74.3236377 -151.17285156 75.42407227 C-164.7131956 128.63518189 -186.84826049 181.37991967 -222 224 C-222.4424707 224.54253418 -222.88494141 225.08506836 -223.34082031 225.64404297 C-230.3231181 234.15416952 -237.86928554 242.06781412 -245.625 249.875 C-246.91241089 251.17630859 -246.91241089 251.17630859 -248.22583008 252.50390625 C-254.17496858 258.42414619 -260.42141558 263.79332836 -267 269 C-267.76328613 269.61198242 -268.52657227 270.22396484 -269.31298828 270.85449219 C-308.34163353 302.04581335 -353.87492114 323.94801702 -398.875 345.125 C-421.70473982 355.90459099 -444.18335462 368.0134667 -463 385 C-463.87914062 385.73605469 -464.75828125 386.47210937 -465.6640625 387.23046875 C-475.56335117 395.64333173 -482.8060728 405.82926634 -488.86938477 417.23876953 C-491.41398545 421.80438553 -491.41398545 421.80438553 -494.76171875 422.921875 C-495.50035156 422.94765625 -496.23898437 422.9734375 -497 423 C-500.33752893 418.35648148 -501.26624553 413.48780926 -502.4375 408 C-502.65067871 407.02595215 -502.86385742 406.0519043 -503.08349609 405.04833984 C-503.73579841 402.03490745 -504.37080767 399.01833542 -505 396 C-505.18739746 395.11086914 -505.37479492 394.22173828 -505.56787109 393.30566406 C-508.29794132 380.20826995 -510.15357112 367.06706014 -511.67456055 353.77807617 C-511.92814084 351.6134174 -512.22130926 349.45338366 -512.5300293 347.29589844 C-513.1267815 342.51918441 -513.14375238 337.78100457 -513.1328125 332.97265625 C-513.13376923 332.02547226 -513.13472595 331.07828827 -513.13571167 330.10240173 C-513.13638928 328.10301649 -513.13456436 326.103629 -513.13037109 324.10424805 C-513.12507089 321.10264906 -513.13030245 318.10120343 -513.13671875 315.09960938 C-513.14400291 299.27719453 -512.73172157 283.71179342 -510.1875 268.0625 C-509.92138916 266.39030396 -509.92138916 266.39030396 -509.64990234 264.68432617 C-508.1292579 255.35676575 -506.2621997 246.17320064 -504 237 C-503.79149414 236.12843262 -503.58298828 235.25686523 -503.36816406 234.35888672 C-491.2909713 184.09567883 -466.80804264 138.91885785 -433 100 C-432.24976563 99.13632812 -431.49953125 98.27265625 -430.7265625 97.3828125 C-421.53973439 87.00202839 -411.86837256 77.61267259 -401 69 C-399.29152434 67.56266916 -397.58319401 66.12516555 -395.875 64.6875 C-376.15554046 48.6965097 -353.74260818 35.1340316 -330 26 C-329.2481543 25.70689941 -328.49630859 25.41379883 -327.72167969 25.11181641 C-317.61037854 21.19598524 -307.48241551 17.78586719 -297 15 C-296.19820312 14.76877441 -295.39640625 14.53754883 -294.5703125 14.29931641 C-287.76626251 12.36313528 -280.9813994 10.99669013 -274 9.875 C-272.99710938 9.70613281 -271.99421875 9.53726562 -270.9609375 9.36328125 C-262.01865268 7.89600713 -253.23960361 6.96610912 -244.171875 6.9296875 C-228.57090545 6.85847411 -215.42535459 5.0723599 -200.68066406 -0.10986328 C-193.76027287 -2.40783653 -186.58939708 -3.88302642 -179.47509766 -5.45019531 C-177.15907719 -5.96466346 -174.85147741 -6.5077059 -172.54296875 -7.0546875 C-116.81652231 -19.7523911 -54.42345725 -17.35911748 0 0 Z " fill="#0AB5B8" transform="translate(934,359)"/>
<path d="M0 0 C27.06 0 54.12 0 82 0 C87.65517241 16.96551724 87.65517241 16.96551724 89.375 22.875 C89.57504639 23.55949219 89.77509277 24.24398438 89.98120117 24.94921875 C91.21833791 29.20948308 92.41253327 33.48064987 93.58984375 37.7578125 C96.82304326 49.4872349 100.25215739 61.1113133 104.0144043 72.68237305 C106.98062646 81.83797337 109.68815077 91.05723684 112.3515625 100.3046875 C113.85665043 105.52946765 115.4206245 110.73478961 117 115.9375 C119.2387857 123.32430356 121.3248078 130.74635958 123.375 138.1875 C126.02124927 147.76545223 128.94029947 157.22744326 132.01245117 166.67651367 C135.29329154 176.80377195 138.2668437 187.01121296 141.20507812 197.2421875 C142.4323019 201.49977958 143.6840264 205.75007576 144.9375 210 C145.14914795 210.71865234 145.3607959 211.43730469 145.57885742 212.17773438 C146.052282 213.78524157 146.52608967 215.39263594 147 217 C147.43699219 215.38158203 147.43699219 215.38158203 147.8828125 213.73046875 C150.11651417 205.53591652 152.46211199 197.39873993 155.0625 189.3125 C157.19878505 182.65629964 159.11472786 175.98309893 160.87109375 169.21484375 C162.31415312 163.73990636 163.9130389 158.30959714 165.5 152.875 C165.78480225 151.89764893 166.06960449 150.92029785 166.36303711 149.91333008 C168.1881204 143.68305288 170.07946184 137.47527317 171.99560547 131.27246094 C173.63789144 125.9216585 175.22615476 120.55510602 176.8125 115.1875 C177.15724365 114.0224292 177.5019873 112.8573584 177.85717773 111.65698242 C181.58023352 99.0604018 185.25543274 86.44994465 188.91894531 73.8359375 C189.53989553 71.69804817 190.16123245 69.56027112 190.78295898 67.42260742 C191.36148521 65.43344534 191.93920073 63.44404717 192.51586914 61.4543457 C194.2778504 55.39783446 196.11318508 49.36683309 197.97583008 43.34057617 C199.69299549 37.73962878 201.34456059 32.1194408 203 26.5 C203.6659608 24.23937527 204.33262603 21.97895794 205 19.71875 C205.28875 18.73841797 205.5775 17.75808594 205.875 16.74804688 C207.55340046 11.15629257 209.28306384 5.58004252 211 0 C238.06 0 265.12 0 293 0 C295.46922365 9.8768946 297.76393328 19.44932267 299.4375 29.4375 C301.6813884 42.68211201 304.33755574 55.83424439 307 69 C308.62177225 77.03981887 310.24058276 85.08023234 311.85717773 93.12109375 C312.32815506 95.46081912 312.80016368 97.80033713 313.27319336 100.13964844 C316.09557222 114.10289423 318.76143626 128.07440529 321.1574707 142.1171875 C322.10598411 147.66256552 323.17364771 153.17823763 324.3125 158.6875 C324.73921745 160.78887261 325.16493546 162.89044832 325.58984375 164.9921875 C325.81526855 166.1069043 326.04069336 167.22162109 326.27294922 168.37011719 C327.67000794 175.34509002 329.02064046 182.32913303 330.375 189.3125 C330.67423051 190.85441168 330.97346556 192.39632249 331.27270508 193.93823242 C331.87964911 197.06635693 332.48628186 200.19454165 333.09277344 203.32275391 C334.41414526 210.13697381 335.73971779 216.95037658 337.06506348 223.76382446 C337.5001898 226.00097584 337.93517875 228.23815388 338.37011719 230.4753418 C340.00409035 238.8799482 341.63903991 247.28436364 343.27531433 255.68852234 C344.01801668 259.50381323 344.75998186 263.31924463 345.50024414 267.13500977 C345.78531591 268.60433003 346.07039074 270.0736497 346.35546875 271.54296875 C346.49390701 272.25661087 346.63234528 272.97025299 346.77497864 273.70552063 C347.69173324 278.42648078 348.61915402 283.1452334 349.55078125 287.86328125 C350.01304234 290.22134995 350.47528326 292.5794226 350.9375 294.9375 C351.14906738 295.99727051 351.36063477 297.05704102 351.57861328 298.14892578 C351.76794434 299.11942871 351.95727539 300.08993164 352.15234375 301.08984375 C352.31726318 301.92378662 352.48218262 302.75772949 352.65209961 303.61694336 C353 306 353 306 353 311 C328.25 311 303.5 311 278 311 C272.25783448 281.14073929 272.25783448 281.14073929 269.87890625 266.62890625 C269.60928405 265.00108103 269.3393308 263.37331061 269.06907654 261.74559021 C268.36987293 257.52986035 267.67442858 253.31352045 266.98010254 249.09698486 C265.87902645 242.41440894 264.77215752 235.73278812 263.66543388 229.05114555 C263.39125658 227.395706 263.11720475 225.74024566 262.84327888 224.08476448 C260.29060559 208.66210629 257.657838 193.25383323 255.00444031 177.84823608 C253.9359609 171.639386 252.88529221 165.42760657 251.83984375 159.21484375 C248.44989918 139.09773391 245.04656374 118.99776097 241 99 C240.82460693 99.66717041 240.64921387 100.33434082 240.46850586 101.02172852 C237.3285215 112.92559538 234.13925857 124.80028399 230.5 136.5625 C225.76288649 151.88759854 221.49977084 167.33875177 217.375 182.83886719 C214.64586338 193.08835906 211.75675606 203.26015624 208.625 213.39379883 C204.19434238 227.77736507 200.24468498 242.29837977 196.37426758 256.84130859 C193.60688397 267.23541904 190.70498002 277.56288061 187.484375 287.82666016 C185.0859001 295.51307699 183.08243234 303.19087873 181 311 C158.56 311 136.12 311 113 311 C106.13996627 289.27655987 106.13996627 289.27655987 103.5 279.625 C102.90673583 277.4816363 102.31297813 275.33840915 101.71875 273.1953125 C101.285625 271.62958496 101.285625 271.62958496 100.84375 270.03222656 C99.58664972 265.51452242 98.29505418 261.00694432 97 256.5 C95.41670663 250.98775437 93.84886 245.47193691 92.31640625 239.9453125 C89.51890357 229.86034278 86.66635777 219.80785486 83.5625 209.8125 C80.61157674 200.2940897 78.01788428 190.69682866 75.49102783 181.05862427 C73.05962072 171.79781076 70.42464995 162.63226472 67.57861328 153.49145508 C64.68030527 144.11618092 62.15863126 134.64829299 59.64453125 125.1640625 C57.97546065 118.86911433 56.22683166 112.59775607 54.42138672 106.34057617 C53.60343525 103.45477378 53 101.01720932 53 98 C52.34 98 51.68 98 51 98 C51.02199463 99.01271973 51.04398926 100.02543945 51.06665039 101.06884766 C51.00306547 104.81919328 50.5863134 108.20994852 49.93359375 111.8984375 C49.81960236 112.55301941 49.70561096 113.20760132 49.58816528 113.88201904 C49.20994395 116.04731956 48.82361445 118.21109432 48.4375 120.375 C48.16527202 121.92680455 47.89372221 123.47872819 47.62280273 125.03076172 C47.04723378 128.32622773 46.46915413 131.62123975 45.88964844 134.91601562 C44.56588117 142.46043932 43.28341021 150.0119037 41.99865723 157.56304932 C41.4078854 161.03319309 40.81509257 164.50299063 40.22241211 167.97280884 C39.06503108 174.74929367 37.90993605 181.52615787 36.75999451 188.3039093 C36.07014273 192.36943955 35.37902364 196.43475382 34.6875 200.5 C34.54871429 201.3163089 34.40992859 202.1326178 34.26693726 202.97366333 C32.38485483 214.03189108 30.46261266 225.08260817 28.51171875 236.12890625 C28.29434555 237.36123993 28.07697235 238.59357361 27.85301208 239.86325073 C26.78597753 245.91088605 25.71573584 251.95791868 24.6394043 258.00390625 C21.52128919 275.64406826 18.7671134 293.29047425 16 311 C-9.08 311 -34.16 311 -60 311 C-57.75056689 293.00453515 -57.75056689 293.00453515 -56.51953125 286.828125 C-56.38599243 286.14936813 -56.25245361 285.47061127 -56.11486816 284.77128601 C-55.68586515 282.5964722 -55.24927382 280.42326505 -54.8125 278.25 C-54.50423004 276.69485599 -54.19654478 275.13959599 -53.8894043 273.58422852 C-53.25130636 270.35471825 -52.61072088 267.12571508 -51.96875 263.89697266 C-51.00572451 259.04228375 -50.06264913 254.18386496 -49.125 249.32421875 C-44.01232805 222.83822426 -44.01232805 222.83822426 -41.48095703 211.06396484 C-39.23592537 200.54082064 -37.26218916 189.96201444 -35.23141479 179.39590454 C-33.83214751 172.11847422 -32.41773467 164.84400865 -31.00186157 157.5697937 C-30.55992014 155.29924555 -30.11818549 153.02865725 -29.67651367 150.75805664 C-29.08144445 147.69888073 -28.48630781 144.63971794 -27.89111328 141.58056641 C-26.57234991 134.8021407 -25.25445074 128.02354697 -23.93649292 121.2449646 C-23.20769797 117.49663606 -22.47884608 113.7483186 -21.75 110 C-21.45833306 108.50000005 -21.16666639 107.00000005 -20.875 105.5 C-20.29166667 102.5 -19.70833333 99.5 -19.125 96.5 C-18.98063507 95.75755035 -18.83627014 95.01510071 -18.68753052 94.25015259 C-18.3957643 92.74964354 -18.10399591 91.24913491 -17.81222534 89.74862671 C-17.08456391 86.00641864 -16.35693993 82.26420329 -15.62939453 78.52197266 C-14.29900636 71.67913747 -12.9683162 64.8363616 -11.63626099 57.99385071 C-11.03122956 54.88581061 -10.42640038 51.77773116 -9.82159424 48.66964722 C-9.52574609 47.14954894 -9.22980813 45.62946814 -8.93377686 44.10940552 C-7.43843801 36.43070348 -5.94921001 28.75099257 -4.484375 21.06640625 C-4.25314941 19.85484863 -4.02192383 18.64329102 -3.78369141 17.39501953 C-3.35703388 15.15546287 -2.93211731 12.91557355 -2.50927734 10.67529297 C-2.32316895 9.69834473 -2.13706055 8.72139648 -1.9453125 7.71484375 C-1.78562988 6.87042725 -1.62594727 6.02601074 -1.46142578 5.15600586 C-1 3 -1 3 0 0 Z " fill="#09B5B8" transform="translate(1381,1370)"/>
<path d="M0 0 C132.07110361 0 132.07110361 0 146.875 6.6875 C147.66817627 7.03417725 148.46135254 7.38085449 149.27856445 7.73803711 C155.83046367 10.70570536 161.49290558 14.36194964 167 19 C167.69996094 19.54011719 168.39992188 20.08023437 169.12109375 20.63671875 C182.44421869 31.36274331 192.12496377 49.0074842 194 66 C194.90605196 80.15202829 194.67051239 93.52442327 190 107 C189.63777344 108.0725 189.27554687 109.145 188.90234375 110.25 C183.40576725 124.85785075 173.32349542 135.24814812 160 143 C163.08754431 144.61878922 166.26719231 145.96309762 169.48168945 147.30786133 C191.13041862 156.45961203 206.38168634 170.3000247 215.85546875 192.14453125 C217.1689083 195.42140603 218.24654061 198.54664447 219 202 C219.18304687 202.79792969 219.36609375 203.59585937 219.5546875 204.41796875 C224.41554128 228.55577005 219.58818662 254.80352166 205.94921875 275.3359375 C202.62446391 279.87999121 198.93999416 283.98410403 195 288 C194.39800781 288.62648438 193.79601563 289.25296875 193.17578125 289.8984375 C148.34570518 332.88085317 32.03488546 312 0 312 C0 209.04 0 106.08 0 0 Z " fill="#0AB5B8" transform="translate(1093,1370)"/>
<path d="M0 0 C59.4 0 118.8 0 180 0 C180 20.46 180 40.92 180 62 C143.04 62 106.08 62 68 62 C68 82.46 68 102.92 68 124 C103.31 124 138.62 124 175 124 C175 144.46 175 164.92 175 186 C139.69 186 104.38 186 68 186 C68 206.79 68 227.58 68 249 C104.96 249 141.92 249 180 249 C180 269.46 180 289.92 180 311 C120.6 311 61.2 311 0 311 C0 208.37 0 105.74 0 0 Z " fill="#09B5B8" transform="translate(858,1370)"/>
<path d="M0 0 C81.51 0 163.02 0 247 0 C247 20.46 247 40.92 247 62 C217.63 62 188.26 62 158 62 C158 144.5 158 227 158 312 C135.23 312 112.46 312 89 312 C89 229.5 89 147 89 62 C59.63 62 30.26 62 0 62 C0 41.54 0 21.08 0 0 Z " fill="#09B5B8" transform="translate(581,1370)"/>
<path d="M0 0 C8.188125 -0.0825 16.37625 -0.165 24.8125 -0.25 C28.65612183 -0.30462402 28.65612183 -0.30462402 32.57739258 -0.36035156 C34.64143032 -0.37204986 36.70547739 -0.38223897 38.76953125 -0.390625 C39.81443726 -0.41108887 40.85934326 -0.43155273 41.93591309 -0.45263672 C52.6380615 -0.45763948 62.15414 2.51983687 70 10 C72.61458733 12.83961329 74.86590105 15.78534462 77 19 C77.43699219 19.65355469 77.87398437 20.30710937 78.32421875 20.98046875 C82.75438034 29.01693731 82.03508223 39.39958821 80.41015625 48.19140625 C77.34096675 58.13444873 69.34610899 66.14351347 60.57543945 71.47338867 C48.98025519 76.72667541 36.64874129 75.54012282 24.1875 75.3125 C16.205625 75.209375 8.22375 75.10625 0 75 C0 50.25 0 25.5 0 0 Z " fill="#FDFEFE" transform="translate(1162,1553)"/>
<path d="M0 0 C38.33557047 0 38.33557047 0 49.875 10.74609375 C56.76821097 17.8918577 60.23919456 26.21029988 60.5625 36.125 C60.09483814 47.60167483 55.0739935 56.3475865 46.875 64.1875 C31.20386354 75.56171195 20.74723022 72 0 72 C0 48.24 0 24.48 0 0 Z " fill="#FEFEFE" transform="translate(1162,1424)"/>
<path d="M0 0 C0.33 0 0.66 0 1 0 C3.4476564 20.71394327 5.75071213 41.10517899 5 62 C4.67 62 4.34 62 4 62 C3.92483154 60.99437012 3.84966309 59.98874023 3.7722168 58.95263672 C2.36187552 40.22278134 0.91241776 21.56924515 -2 3 C-1.34 3 -0.68 3 0 3 C0 2.01 0 1.02 0 0 Z " fill="#24BDBF" transform="translate(1318,634)"/>
<path d="M0 0 C0.33 0 0.66 0 1 0 C1.96465491 7.22351829 2.11956114 14.28062068 2.0625 21.5625 C2.05798828 22.66658203 2.05347656 23.77066406 2.04882812 24.90820312 C2.0371514 27.605527 2.02077525 30.30273347 2 33 C1.67 33 1.34 33 1 33 C0.62985247 29.3764505 0.28188882 25.75108102 -0.0625 22.125 C-0.16626953 21.11179687 -0.27003906 20.09859375 -0.37695312 19.0546875 C-0.98209183 12.54422975 -0.92545581 6.47549776 0 0 Z " fill="#63D0D2" transform="translate(1321,663)"/>
<path d="M0 0 C-2.64130091 2.64130091 -4.80878108 2.82401188 -8.4375 3.625 C-9.59121094 3.88539062 -10.74492188 4.14578125 -11.93359375 4.4140625 C-15 5 -15 5 -18 5 C-18 4.34 -18 3.68 -18 3 C-18.66 2.67 -19.32 2.34 -20 2 C-17.79248152 1.66131223 -15.58394089 1.32928311 -13.375 1 C-12.14523437 0.814375 -10.91546875 0.62875 -9.6484375 0.4375 C-6.3833973 0.04597484 -3.28287549 -0.08080924 0 0 Z " fill="#D8F3F3" transform="translate(1044,1154)"/>
<path d="M0 0 C0.66 0 1.32 0 2 0 C1.39889717 4.00735217 -0.66602028 6.55469371 -3.0625 9.75 C-3.79597656 10.73484375 -4.52945313 11.7196875 -5.28515625 12.734375 C-5.85105469 13.48203125 -6.41695312 14.2296875 -7 15 C-7.66 14.67 -8.32 14.34 -9 14 C-7.55008333 11.66103978 -6.09074592 9.32900732 -4.625 7 C-4.2125 6.33226562 -3.8 5.66453125 -3.375 4.9765625 C-2.30339045 3.28272806 -1.15669501 1.63691136 0 0 Z " fill="#D3F2F2" transform="translate(535,590)"/>
<path d="M0 0 C0.33 0 0.66 0 1 0 C1.33 4.62 1.66 9.24 2 14 C1.34 14 0.68 14 0 14 C-0.66 10.37 -1.32 6.74 -2 3 C-1.34 3 -0.68 3 0 3 C0 2.01 0 1.02 0 0 Z " fill="#30C0C3" transform="translate(1318,634)"/>
<path d="M0 0 C0.33 0.66 0.66 1.32 1 2 C-0.65 3.65 -2.3 5.3 -4 7 C-4.33 6.34 -4.66 5.68 -5 5 C-3.35 3.35 -1.7 1.7 0 0 Z " fill="#EAF8F9" transform="translate(541,584)"/>
</svg>
